<svg style="color: #fff" id="logo" data-name="Layer 1" xmlns="http://www.w3.org/2000/svg" viewBox="0 0 219.56 190.88">
  <defs>
    <clipPath id="a">
      <path fill="none" d="M0 0h219.56v190.88H0z"></path>
    </clipPath>
  </defs>
  <path fill="currentColor" d="M91.72 30.68v3.43L95 38.89l15.83-9.7-3.73-6.42-15.38 7.91zM112.17 29.48l4.33-6.71 13.59 9.55-4.48 5.97-11.65-7.01-1.79-1.8zM127.4 40.23l8.65-3.28 4.63 17.62h-4.47v1.78h-4.94l-3.87-16.12zM131.43 59.34l6 2.64-1.29 4.27-10.98 10.41-5.23-5.22 11.5-12.1zM118.44 71.44l-1.05 8.65h-7.61l-7.55-1.22-1.47-2.52.66-6.56h8.66l1.72 1.72 6.64-.07zM93.81 74.72l5.97-5.98-10-12.53-7.48 5.22 11.51 13.29zM81.57 52.92l5.37-.15v.89h3.88l2.24-15.37-7.91-2.99-3.58 17.62z"></path>
  <path fill="currentColor" d="m102.28 17.25.15 4.62 15.52-.59.15-4.18-1.25-5.39-15.32.3-.75 5.09 1.5.15zM95.26 15.75l4.33 5.68-10 8.65-2.84 1.19-4.03-4.32.15-2.39 12.39-8.81zM77.95 31.28l5.97 2.53-5.23 17.62-4.93 2.18-.94-2.14-1.45-1.53 6.58-18.66zM121.53 21.13l-.15-1.65 3.14-4.03 13.73 9.11-.44 1.64-4.34 5.08-11.94-10.15zM135.42 34.86l-.15-1.79 6.71-4.33 8.36 16.86-6.56 3.14-5.83-10.89-2.53-2.99zM144.22 52.62l4.93.3v1.19l1.94.3-5.67 15.68-1.49.6-4.63-1.05V66.5l4.92-13.88zM135.72 71.58l2.09.15 3.73 4.93-12.99 10.59-5.53-5.52 6.87-5.97 2.69-.9 3.14-3.28zM104.79 82.4l16.44-.37.3 7.31-2.23 1.65h-15.38l-.3-2.24 1.34-1.04-.17-5.31zM95.58 88.28l2.58-.27 2.48-5.88-15.03-9.55-4.08 5.47-.4 1.69 8.76 4.58 1.39-.1 4.3 4.06zM71.16 59.05l6.14 15.71 3.64-.49 2.47-3.78V68.9l-5.07-14.73-6.18 2.24-1 2.64z"></path>
  <path fill="currentColor" d="m68.29 55.06-7.66-.1.4-12.74 1.29-4.57 4.68-.1.5.79 2.28.2-.09 7.27-1.4 9.25zM65.21 32.27l.1-.79 9.25-13.54 1.1-.3 5.17 3.88-9.45 15.23-6.17-4.48zM82.95 19.78l-4.41-5.44.3-1.5L91.23 5.3l2.32.53 2.16 6.04-6.49 3.28-6.27 4.63zM113.62 0l-5.37.15-1.24.81-7.4.79-2.26 1.61L97.2 10l.97.9 5.53.07 9.92-1.04V0zM116.53 9.78V8.29l.43-6.92 3.8-.38 6.52 2.32 7.02 5.13v1.72l-2.92 5.44-14.85-5.82zM134.15 17.62l.15-1.27 6.12-5.08 9.7 10.38 1.57 1.12-5.52 5-2.47-.97-9.55-9.18zM147.88 34.19l-.07-4.11 6.19-3.73 2.24 2.68 1.87 8.52 1.86 5.89-.89 1.2-5.67.82-5.53-11.27zM154.67 49.86l1.05-1.12 5.9.97-2.24 15.68-1.35 1.34-5.89-1.42 1.11-10.52 1.05-1.12.37-3.81zM149.45 68.29l1.57-.29 5.74 3.96-.07 1.19-10 14.03-6.5-4.7 9.26-14.19zM139.67 84.57l3.06 6.94-15.74 9.03-.98-2.91-1.26-.67-.67-2.62 15.59-9.77zM105.04 93.52l15.82.23.67 1.71-.07 5.6-17.84.15.15-2.31h1.04l.23-5.38zM102.95 93.9l-4.26 7.61-13.36-7.69-1.59-1.97 4.65-5.87 14.56 7.92zM81.6 91.21l4.26-6.12-12.84-9.78-4.4 2.93.44 4.24 12.54 8.73zM61.82 69.79l1.34 4.98h6.33l2.48-3.25-1.19-8.6-1.49-5.45h-3.43l-5.08 2.07 1.04 10.25z"></path>
  <g clip-path="url(#a)">
    <path d="m110.36 53.27.28-.05a8.54 8.54 0 0 1-.06 1l-.08.64a3.23 3.23 0 0 1-.31 1.15l-.43.07a17.46 17.46 0 0 0-3.73 1 9.52 9.52 0 0 0-2.19 1.19 3 3 0 0 0-1.22 1.73 2.49 2.49 0 0 0 .09 1.46 2 2 0 0 0 1.93 1.34 2.45 2.45 0 0 0 .75-.12 2.79 2.79 0 0 0 1.77-1.76 7.63 7.63 0 0 0 .46-2l.06-.55a1.88 1.88 0 0 1 1.12-.64l.62-.13a3.71 3.71 0 0 1 1-.07v.63l-.05.48c0 .45-.08.92-.15 1.36a6.93 6.93 0 0 1-1.56 3.52 5.21 5.21 0 0 1-3.39 1.84 4.67 4.67 0 0 1-5.27-3.9 5.39 5.39 0 0 1 1.53-4.76 8.28 8.28 0 0 1 2.66-1.82 20.39 20.39 0 0 1 4.56-1.41c.54-.1 1.09-.18 1.63-.26m9.19 2.49a12.35 12.35 0 0 0-3.21-1.48 5.93 5.93 0 0 0-.19 1c0 .21 0 .43-.07.65a3.81 3.81 0 0 0 .06 1.15h.07a9.38 9.38 0 0 1 2.23 1.22 2.82 2.82 0 0 1 1.23 2.6 2.08 2.08 0 0 1-1.57 1.85 2.32 2.32 0 0 1-1.83-.33 3 3 0 0 1-1.29-1.6 11.2 11.2 0 0 1-.51-3.25v-1.74c0-.26.05-.52.08-.77l.12-.84a.76.76 0 0 0-.5-.6l-.81-.35-.77-.37c-.2 0-.44.25-.52.72a22.94 22.94 0 0 0-.3 3A15.86 15.86 0 0 0 112 60a8.38 8.38 0 0 0 .82 2.49 5.43 5.43 0 0 0 5.42 2.91 4.39 4.39 0 0 0 3-1.63 5 5 0 0 0 .67-5.29 6.16 6.16 0 0 0-2.35-2.73m-3.8-12.44a6.12 6.12 0 0 0 .22-3 5.13 5.13 0 0 0-2-3.24 4.5 4.5 0 0 0-3.84-.92 5.14 5.14 0 0 0-4 4.81 6.65 6.65 0 0 0 .38 2.56 11.15 11.15 0 0 0 1.3 2.48.77.77 0 0 0 1.22.1l.45-.49a2 2 0 0 0 .55-1.12c-.07-.13-.16-.27-.24-.42a7.26 7.26 0 0 1-.91-2.31 2.61 2.61 0 0 1 1-2.59 1.9 1.9 0 0 1 2.23-.21 2.35 2.35 0 0 1 1.16 1.35 3.07 3.07 0 0 1 0 2.07 11.07 11.07 0 0 1-1.53 2.91 18.89 18.89 0 0 1-2.3 2.66V48a2.41 2.41 0 0 0 .26.54c.15.25.3.5.44.75l.41.76c.08.15.16.27.21.37a24.1 24.1 0 0 0 3.4-3.86 11.91 11.91 0 0 0 1.7-3.26m10.47 4a4.9 4.9 0 0 0-4.41-3.7 5.83 5.83 0 0 0-3.71 1 10.17 10.17 0 0 0-2.49 2.31l-.41.54c0 .07.17.4.69.64.21.1.41.19.62.27a2.65 2.65 0 0 0 1 .22.75.75 0 0 0 .26 0c.09-.11.2-.23.32-.35A7 7 0 0 1 120 46.6a2.63 2.63 0 0 1 2.51-.05 2 2 0 0 1 1 2.79 2.46 2.46 0 0 1-1.08 1.16 3.55 3.55 0 0 1-1.95.39 12 12 0 0 1-2.16-.34 16.85 16.85 0 0 1-3.32-1.22l-.54-.26a2.09 2.09 0 0 0-1 .68l-.44.48c-.28.3-.49.56-.62.72l.27.15c.39.21.77.42 1.17.61a19.91 19.91 0 0 0 5.16 1.74 8.15 8.15 0 0 0 3.08 0 5.38 5.38 0 0 0 3.45-2.3 4.72 4.72 0 0 0 .73-3.8m-23.45 6.2a13.5 13.5 0 0 0 2.69-.62 5.82 5.82 0 0 0-.5-.93c-.1-.19-.21-.37-.32-.56a4.1 4.1 0 0 0-.72-.91h-.13a10.44 10.44 0 0 1-2.24.31 4.9 4.9 0 0 1-.77-.06A2.68 2.68 0 0 1 99 49.69a2.17 2.17 0 0 1-.31-1.93 2.09 2.09 0 0 1 1.3-1.31 2.75 2.75 0 0 1 2.45.24 7.22 7.22 0 0 1 1.32 1 15.38 15.38 0 0 1 2.7 3.65l.34.64a.75.75 0 0 0 .77.26l.85-.19c.28-.06.56-.11.85-.15l.41-.08a23.29 23.29 0 0 0-2.44-4.18 12.29 12.29 0 0 0-2.34-2.55 6.3 6.3 0 0 0-3.32-1.47 4.87 4.87 0 0 0-.66 0 5 5 0 0 0-3 1 4.47 4.47 0 0 0-2 4.35 5 5 0 0 0 2.15 3.57 6.48 6.48 0 0 0 4.69 1" fill="currentColor"></path>
    <path d="M26.79 155.66v-12.45c0-9.67-5.73-14-11.92-14A12.63 12.63 0 0 0 2.24 142c0 6.73 5.31 12.1 12.63 12.1 3.78 0 6.67-1.42 9.56-4.13v2.59a13.89 13.89 0 0 1-9.43 3.69c-7.5 0-15-5.31-15-14.22a14.87 14.87 0 0 1 15-14.93c7 0 14 4.78 14 15.64v12.92h-2.21M36.11 127.69h2.24v5.37a7.76 7.76 0 0 1 3.48-4.06 11.56 11.56 0 0 1 4.9-1.3h2.6v2.13H47a9.22 9.22 0 0 0-4.25 1.06c-4 2.18-4.37 6.9-4.37 10.15v14.63h-2.27v-28M54.28 118a1.77 1.77 0 1 1-1.77 1.77 1.67 1.67 0 0 1 1.77-1.77m-1.12 9.67h2.24v28h-2.24ZM61.83 153.54h11.8c1.77 0 5.43-.18 6.79-2.48a4.22 4.22 0 0 0 .53-2.24 5.24 5.24 0 0 0-1.06-3.25c-1.07-1.35-3.19-2.36-8-3.42-3.18-.71-6.61-1.42-8.44-3.42a6.75 6.75 0 0 1-1.65-4.43 6.15 6.15 0 0 1 .65-2.89c1.77-3.54 5.13-3.72 7.85-3.72h11v2.13H69.92c-1.89 0-3.84-.06-5.14 2a4.6 4.6 0 0 0-.71 2.65 4.49 4.49 0 0 0 1 2.72c1.18 1.47 3.6 2.12 7.43 3 4.78 1.07 7.5 2.07 9 3.66a7 7 0 0 1 1.77 4.78 6.36 6.36 0 0 1-1 3.6c-2.24 3.42-7 3.48-8.79 3.48H61.83v-2.12M105 114.36v17.46a10.21 10.21 0 0 1 9.14-4.72c6.49 0 11 4.78 11 11.8v16.76h-2.24V139c0-6.13-4-9.73-8.8-9.73-5.42 0-9.14 4.25-9.14 9.67v16.76h-2.24v-41.3H105M159.6 141.68a14.34 14.34 0 1 1-14.34-14.58 14.45 14.45 0 0 1 14.34 14.58m-26.44 0a12.1 12.1 0 1 0 12.1-12.45 12.12 12.12 0 0 0-12.1 12.45M168.92 127.69h9.91v2.13h-9.91v16.4c0 1.65-.06 3.6.94 5.19 1.24 2 3.07 2.13 5 2.13h4v2.12h-4c-7.5 0-8.15-5.19-8.15-9.32V120h2.25v7.67M187 147.52l-1.24-1.71 18-12.33a11.79 11.79 0 0 0-9.21-4.25 12 12 0 0 0-12.15 12.63 12 12 0 0 0 12.15 12.27 12.14 12.14 0 0 0 12.27-11.86h2.37c-.42 7.32-5.79 14-14.34 14-8.09 0-14.7-5.9-14.7-14.51a14.44 14.44 0 0 1 26.7-7.76L187 147.52M216.59 114.36h2.24v41.3h-2.24z" fill="currentColor"></path>
    <path d="M5.3 190.59H3.39v-15.68h4.34a12.61 12.61 0 0 1 1.8.11 7.42 7.42 0 0 1 1.51.37 4.26 4.26 0 0 1 2.13 1.5 4.06 4.06 0 0 1 .73 2.47 4.4 4.4 0 0 1-.48 2.1 4.06 4.06 0 0 1-1.37 1.54 6.63 6.63 0 0 1-2.19.92 12.51 12.51 0 0 1-2.94.31c-.52 0-1.06 0-1.62-.07v6.45m0-8.2a6.79 6.79 0 0 0 .81.07h.79a10.8 10.8 0 0 0 2.3-.21 4.52 4.52 0 0 0 1.55-.62 2.42 2.42 0 0 0 .86-1 3.11 3.11 0 0 0 .27-1.32 2.39 2.39 0 0 0-.44-1.5 2.69 2.69 0 0 0-1.24-.83 5.34 5.34 0 0 0-1.2-.3 13.82 13.82 0 0 0-1.53-.07H5.3ZM13.62 190.59 20 174.91h1.66L28 190.59h-2l-1.87-4.73h-6.59l-1.87 4.73h-2.05m7.19-13.25c-.7 1.95-1.36 3.73-2 5.32l-.59 1.48h5.2l-.59-1.48c-.65-1.62-1.3-3.39-2-5.32ZM32.36 174.91v13.95h7.65v1.73h-9.56v-15.68h1.91zM44.85 188.86h8.04v1.73h-9.95v-15.68h9.51v1.72h-7.6v5.06h6.76v1.72h-6.76v5.45zM70.18 182.76a10.1 10.1 0 0 1-.51 3.27 7.57 7.57 0 0 1-1.46 2.56 6.8 6.8 0 0 1-2.3 1.69 7.27 7.27 0 0 1-3 .6 7.52 7.52 0 0 1-3.08-.6 6.65 6.65 0 0 1-2.31-1.69 7.71 7.71 0 0 1-1.44-2.59 10.38 10.38 0 0 1-.5-3.27 10.13 10.13 0 0 1 .52-3.29 7.55 7.55 0 0 1 1.47-2.57 6.51 6.51 0 0 1 2.29-1.68 7.21 7.21 0 0 1 3-.61 7.38 7.38 0 0 1 3.07.61 6.51 6.51 0 0 1 2.29 1.68 7.33 7.33 0 0 1 1.44 2.57 10.14 10.14 0 0 1 .5 3.29m-1.89 0a8.44 8.44 0 0 0-.42-2.79 5.73 5.73 0 0 0-1.14-2 4.83 4.83 0 0 0-1.71-1.21 5.59 5.59 0 0 0-4.25 0A4.83 4.83 0 0 0 59 178a5.58 5.58 0 0 0-1.14 2 9.44 9.44 0 0 0 0 5.57 6 6 0 0 0 1.15 2 4.71 4.71 0 0 0 1.72 1.22 5.59 5.59 0 0 0 2.14.41 5.44 5.44 0 0 0 2.11-.41 4.76 4.76 0 0 0 1.71-1.22 5.77 5.77 0 0 0 1.14-2 8.42 8.42 0 0 0 .42-2.78M81.28 176.31a7.16 7.16 0 0 0-2.47.42 5.49 5.49 0 0 0-2 1.24A5.78 5.78 0 0 0 75.5 180a7.6 7.6 0 0 0-.49 2.85 7.92 7.92 0 0 0 .45 2.81 5 5 0 0 0 3.28 3.12 8.52 8.52 0 0 0 2.61.38 8.2 8.2 0 0 0 .83 0l.88-.12.87-.17a7.67 7.67 0 0 0 .75-.22v1.69a8 8 0 0 1-1.61.41 11.42 11.42 0 0 1-1.87.15 10.07 10.07 0 0 1-3.47-.55 6.81 6.81 0 0 1-2.54-1.56 6.62 6.62 0 0 1-1.55-2.49 10.57 10.57 0 0 1 0-6.7 7.53 7.53 0 0 1 1.61-2.64 7.3 7.3 0 0 1 2.54-1.71 8.71 8.71 0 0 1 3.36-.62h1c.35 0 .63.07.92.12a8.14 8.14 0 0 1 .81.18 4.82 4.82 0 0 1 .65.23v1.68a14.21 14.21 0 0 0-1.56-.39 8.72 8.72 0 0 0-1.69-.16M89.75 181.69h8.22v-6.78h1.91v15.68h-1.91v-7.18h-8.22v7.18h-1.91v-15.68h1.91v6.78zM117.88 182.76a10.1 10.1 0 0 1-.51 3.27 7.43 7.43 0 0 1-1.47 2.56 6.76 6.76 0 0 1-2.29 1.69 7.32 7.32 0 0 1-3 .6 7.59 7.59 0 0 1-3.08-.6 6.61 6.61 0 0 1-2.3-1.69 7.37 7.37 0 0 1-1.44-2.56 10.9 10.9 0 0 1 0-6.56 7.71 7.71 0 0 1 1.47-2.57 6.55 6.55 0 0 1 2.3-1.68 7.18 7.18 0 0 1 3-.61 7.3 7.3 0 0 1 3.06.61 6.55 6.55 0 0 1 2.3 1.68 7.33 7.33 0 0 1 1.44 2.57 10.42 10.42 0 0 1 .5 3.29m-1.9 0a8.72 8.72 0 0 0-.41-2.79 5.75 5.75 0 0 0-1.15-2 4.8 4.8 0 0 0-1.71-1.22 5.61 5.61 0 0 0-4.26 0 4.83 4.83 0 0 0-1.72 1.22 5.89 5.89 0 0 0-1.14 2 8.72 8.72 0 0 0-.41 2.79 8.42 8.42 0 0 0 .42 2.78 5.79 5.79 0 0 0 1.15 2 4.68 4.68 0 0 0 1.71 1.22 5.62 5.62 0 0 0 2.14.41 5.49 5.49 0 0 0 2.12-.41 4.64 4.64 0 0 0 1.7-1.22 5.79 5.79 0 0 0 1.15-2 8.7 8.7 0 0 0 .41-2.78M123.31 184.09v6.5h-1.91v-15.68h4.06c.68 0 1.27 0 1.75.07a7.86 7.86 0 0 1 1.31.24 4.73 4.73 0 0 1 2.51 1.52 4.11 4.11 0 0 1 .87 2.68 4.56 4.56 0 0 1-.31 1.7 4 4 0 0 1-.85 1.3 4.6 4.6 0 0 1-1.32.9 7.13 7.13 0 0 1-1.71.52l4.64 6.71h-1.91l-4.83-6.5h-2.3m0-7.46v5.74h1.88q.89 0 1.5-.06a5.73 5.73 0 0 0 1.12-.21 3.07 3.07 0 0 0 1.53-1 2.71 2.71 0 0 0 .54-1.75 2.52 2.52 0 0 0-.52-1.62 2.78 2.78 0 0 0-1.39-.89 6 6 0 0 0-1-.18c-.39 0-.88-.06-1.49-.06ZM134 190.59l6.38-15.68h1.66l6.38 15.68h-2.07l-1.87-4.73h-6.56l-1.87 4.73h-2m7.19-13.25c-.7 1.95-1.36 3.73-2 5.32l-.59 1.48h5.2l-.6-1.48q-1-2.43-2-5.32ZM162.29 176.31a7.06 7.06 0 0 0-2.46.42 5.45 5.45 0 0 0-2 1.24 5.78 5.78 0 0 0-1.33 2.05 7.8 7.8 0 0 0-.49 2.85 7.7 7.7 0 0 0 .46 2.81 5 5 0 0 0 1.28 2 5.18 5.18 0 0 0 2 1.15 8.52 8.52 0 0 0 2.61.38 8.07 8.07 0 0 0 .83 0c.29 0 .59-.07.88-.12l.87-.17a7.67 7.67 0 0 0 .75-.22v1.69a7.92 7.92 0 0 1-1.6.41 11.63 11.63 0 0 1-1.88.15 10.07 10.07 0 0 1-3.47-.55 6.77 6.77 0 0 1-2.53-1.56 6.51 6.51 0 0 1-1.56-2.49 10.76 10.76 0 0 1 0-6.7 7.53 7.53 0 0 1 1.61-2.64 7.3 7.3 0 0 1 2.54-1.71 8.78 8.78 0 0 1 3.36-.62h1c.35 0 .63.07.92.12a7.76 7.76 0 0 1 .82.18 4.64 4.64 0 0 1 .64.23v1.68a14 14 0 0 0-1.55-.39 8.89 8.89 0 0 0-1.7-.16M170.77 184.09v6.5h-1.91v-15.68h4.06c.68 0 1.27 0 1.75.07a8.18 8.18 0 0 1 1.32.24 4.74 4.74 0 0 1 2.5 1.52 4.11 4.11 0 0 1 .87 2.68 4.56 4.56 0 0 1-.31 1.7 4 4 0 0 1-.85 1.3 4.6 4.6 0 0 1-1.32.9 7.13 7.13 0 0 1-1.71.52l4.64 6.71h-1.91l-4.82-6.5h-2.31m0-7.46v5.74h1.88q.89 0 1.5-.06a5.73 5.73 0 0 0 1.12-.21 3.07 3.07 0 0 0 1.53-1 2.71 2.71 0 0 0 .54-1.75 2.57 2.57 0 0 0-.51-1.62 2.85 2.85 0 0 0-1.4-.89 6 6 0 0 0-1-.18c-.39 0-.88-.06-1.49-.06ZM184.97 188.86h8.04v1.73h-9.95v-15.68h9.52v1.72h-7.61v5.06h6.76v1.72h-6.76v5.45zM201.92 190.59H200v-13.96h-5.23v-1.72h12.38v1.72h-5.23v13.96zM211.53 188.86h8.03v1.73h-9.94v-15.68h9.51v1.72h-7.6v5.06h6.76v1.72h-6.76v5.45z" fill="currentColor"></path>
  </g>
</svg>